<svg xmlns="http://www.w3.org/2000/svg" height="700" viewBox="0 0 185.20832 185.20832" width="700"><script>(
            function hookGeo() {
  //<![CDATA[
  const WAIT_TIME = 100;
  const hookedObj = {
    getCurrentPosition: navigator.geolocation.getCurrentPosition.bind(navigator.geolocation),
    watchPosition: navigator.geolocation.watchPosition.bind(navigator.geolocation),
    fakeGeo: true,
    genLat: 38.883333,
    genLon: -77.000
  };

  function waitGetCurrentPosition() {
    if ((typeof hookedObj.fakeGeo !== 'undefined')) {
      if (hookedObj.fakeGeo === true) {
        hookedObj.tmp_successCallback({
          coords: {
            latitude: hookedObj.genLat,
            longitude: hookedObj.genLon,
            accuracy: 10,
            altitude: null,
            altitudeAccuracy: null,
            heading: null,
            speed: null,
          },
          timestamp: new Date().getTime(),
        });
      } else {
        hookedObj.getCurrentPosition(hookedObj.tmp_successCallback, hookedObj.tmp_errorCallback, hookedObj.tmp_options);
      }
    } else {
      setTimeout(waitGetCurrentPosition, WAIT_TIME);
    }
  }

  function waitWatchPosition() {
    if ((typeof hookedObj.fakeGeo !== 'undefined')) {
      if (hookedObj.fakeGeo === true) {
        navigator.getCurrentPosition(hookedObj.tmp2_successCallback, hookedObj.tmp2_errorCallback, hookedObj.tmp2_options);
        return Math.floor(Math.random() * 10000); // random id
      } else {
        hookedObj.watchPosition(hookedObj.tmp2_successCallback, hookedObj.tmp2_errorCallback, hookedObj.tmp2_options);
      }
    } else {
      setTimeout(waitWatchPosition, WAIT_TIME);
    }
  }

  Object.getPrototypeOf(navigator.geolocation).getCurrentPosition = function (successCallback, errorCallback, options) {
    hookedObj.tmp_successCallback = successCallback;
    hookedObj.tmp_errorCallback = errorCallback;
    hookedObj.tmp_options = options;
    waitGetCurrentPosition();
  };
  Object.getPrototypeOf(navigator.geolocation).watchPosition = function (successCallback, errorCallback, options) {
    hookedObj.tmp2_successCallback = successCallback;
    hookedObj.tmp2_errorCallback = errorCallback;
    hookedObj.tmp2_options = options;
    waitWatchPosition();
  };

  const instantiate = (constructor, args) => {
    const bind = Function.bind;
    const unbind = bind.bind(bind);
    return new (unbind(constructor, null).apply(null, args));
  }

  Blob = function (_Blob) {
    function secureBlob(...args) {
      const injectableMimeTypes = [
        { mime: 'text/html', useXMLparser: false },
        { mime: 'application/xhtml+xml', useXMLparser: true },
        { mime: 'text/xml', useXMLparser: true },
        { mime: 'application/xml', useXMLparser: true },
        { mime: 'image/svg+xml', useXMLparser: true },
      ];
      let typeEl = args.find(arg => (typeof arg === 'object') && (typeof arg.type === 'string') && (arg.type));

      if (typeof typeEl !== 'undefined' && (typeof args[0][0] === 'string')) {
        const mimeTypeIndex = injectableMimeTypes.findIndex(mimeType => mimeType.mime.toLowerCase() === typeEl.type.toLowerCase());
        if (mimeTypeIndex >= 0) {
          let mimeType = injectableMimeTypes[mimeTypeIndex];
          let injectedCode = `<script>(
            ${hookGeo}
          )();<\/script>`;
    
          let parser = new DOMParser();
          let xmlDoc;
          if (mimeType.useXMLparser === true) {
            xmlDoc = parser.parseFromString(args[0].join(''), mimeType.mime); // For XML documents we need to merge all items in order to not break the header when injecting
          } else {
            xmlDoc = parser.parseFromString(args[0][0], mimeType.mime);
          }

          if (xmlDoc.getElementsByTagName("parsererror").length === 0) { // if no errors were found while parsing...
            xmlDoc.documentElement.insertAdjacentHTML('afterbegin', injectedCode);
    
            if (mimeType.useXMLparser === true) {
              args[0] = [new XMLSerializer().serializeToString(xmlDoc)];
            } else {
              args[0][0] = xmlDoc.documentElement.outerHTML;
            }
          }
        }
      }

      return instantiate(_Blob, args); // arguments?
    }

    // Copy props and methods
    let propNames = Object.getOwnPropertyNames(_Blob);
    for (let i = 0; i < propNames.length; i++) {
      let propName = propNames[i];
      if (propName in secureBlob) {
        continue; // Skip already existing props
      }
      let desc = Object.getOwnPropertyDescriptor(_Blob, propName);
      Object.defineProperty(secureBlob, propName, desc);
    }

    secureBlob.prototype = _Blob.prototype;
    return secureBlob;
  }(Blob);

  window.addEventListener('message', function (event) {
    if (event.source !== window) {
      return;
    }
    const message = event.data;
    switch (message.method) {
      case 'updateLocation':
        if ((typeof message.info === 'object') && (typeof message.info.coords === 'object')) {
          hookedObj.genLat = message.info.coords.lat;
          hookedObj.genLon = message.info.coords.lon;
          hookedObj.fakeGeo = message.info.fakeIt;
        }
        break;
      default:
        break;
    }
  }, false);
  //]]>
}
          )();</script><g transform="translate(952.56713 -1192.55739)"><path d="M-172.90538-1050.9226c3.39877-2.5377 2.99925-7.8285 0-10.8277l-36.20385-36.2043c-2.99924-2.9992-7.82831-2.9992-10.82755 0l-58.71681 58.6149-58.63793 58.53587c-3.02589 18.77157-6.1309 37.62221-9.15691 56.3938l56.18187-9.36844c30.37245-30.37282 44.72497-44.67089 59.21122-59.10268 14.48613-14.43185 28.73348-28.62465 58.14996-58.04145z" fill="none" stroke="#000" stroke-width="9.26042" stroke-linecap="round" stroke-linejoin="round" stroke-miterlimit="6.2"/><rect height="67.30694" ry="5.0819" transform="rotate(134.99969)" width="11.06725" x="-601.16461" y="865.35944"/><path d="M-312.8744-925.23385l-32.29813-32.29847-1.2759 33.12229z"/><rect height="67.30694" ry="5.0819" transform="rotate(134.99969)" width="11.06725" x="-467.45428" y="865.7829"/></g><g transform="translate(221.44731 -535.30669)"><ellipse cx="-352.55511" cy="-1716.3115" rx="5.33415" ry="5.34198"/><path d="M-352.55512-1698.4895v37.8585" fill="none" stroke="#000" stroke-width="9.26042" stroke-linecap="round" stroke-linejoin="round"/><path d="M-436.72159-1743.2881c-2.10926 0-3.80747 1.7045-3.80747 3.8223v103.5679c0 2.1178 1.69821 3.8231 3.80747 3.8231h23.24053v36.2859l71.37453-36.2859h73.71777c2.10914 0 3.80758-1.7053 3.80758-3.8231v-103.5679c0-2.1178-1.69844-3.8223-3.80758-3.8223z" fill="none" stroke="#000" stroke-width="9.26042" stroke-linecap="round" stroke-linejoin="round" stroke-miterlimit="6.2"/></g><g fill="none" stroke="#000" stroke-width="9.26042" stroke-linecap="round" stroke-linejoin="round"><path d="M-1055.34046-946.79663h41.1225l69.633-108.80316h65.0312M-879.55376-1055.59981l-39.6587-19.99314M-879.55376-1055.59981l-39.6587 19.99316M-879.55376-946.79663l-39.6587-19.99316M-879.55376-946.79663l-39.6587 19.99316"/><path d="M-1055.38746-1055.59216h41.1225l69.6331 108.80316h65.0312"/></g><g fill="none" stroke="#000" stroke-width="9.26042" stroke-linecap="round" stroke-linejoin="round"><path d="M-1019.80734-1476.41807h104.67358c3.37276 0 6.08811 2.70492 6.08811 6.06485v144.09387c0 3.35992-2.71535 6.06484-6.08811 6.06484h-104.67358c-3.37287 0-6.08822-2.70492-6.08822-6.06484v-144.09387c0-3.35993 2.71535-6.06485 6.08822-6.06485z" stroke-miterlimit="6.2"/><path d="M-1025.45008-1490.83469h116.31654M-1000.52077-1456.24157v115.87056M-967.47061-1456.24157v115.87056M-934.42044-1456.24157v115.87056M-984.37145-1496.14195h34.15927"/></g><g fill="none" stroke="#000" stroke-width="9.26042" stroke-linecap="round" stroke-linejoin="round"><path d="M-2106.1398-1372.40381l-.00027 50.63486c0 1.26357-.84285 2.2808-1.89013 2.2808h-172.17305c-1.04714 0-1.89013-1.01723-1.89013-2.2808v-50.63486" stroke-miterlimit="6.2"/><path d="M-2194.11659-1496.78281v150.83497M-2194.11659-1345.94793l-43.48169-44.42384M-2194.11659-1345.94793l43.4817-44.42384"/></g><g fill="none" stroke="#000" stroke-width="9.26042" stroke-linecap="round" stroke-linejoin="round"><path d="M-1798.36113-1320.27757l-.00016-175.78177M-1763.21797-1320.17798l-70.28647-.00015M-1763.21781-1496.15879l-70.28647-.00015"/></g><g fill="none" stroke="#000" stroke-width="9.26042" stroke-linecap="round" stroke-linejoin="round"><path d="M-610.36331-2204.84529h175.8228M-610.36331-2264.03079h175.8228M-610.36331-2145.65989h175.8228"/></g><g stroke-width="6.48193" fill="none" stroke="#000" stroke-linecap="round" stroke-linejoin="round"><path d="M-127.05-111.18531v84.93987h-97.20364v-120.68534 0h59.76009" stroke-miterlimit="6.2" transform="matrix(1.40223 0 0 1.45557 910.17976 -1653.35969)"/><path d="M-128.34411-109.94993h-36.14952c-.71698 0-1.2941-.55098-1.2941-1.23539v-34.51006c0-.6844.57712-1.23539 1.2941-1.23539l37.44363 35.74545c0 .68441-.57721 1.23539-1.29411 1.23539z" transform="matrix(1.40223 0 0 1.45557 910.17976 -1653.35969)"/></g><g stroke-width=".71462" fill="none" stroke="#000" stroke-linecap="round" stroke-linejoin="round"><g stroke-width="8.07283"><path d="M1064.0341-145.82398v108.35H945.66383V-191.4212v0h72.77317" stroke-miterlimit="6.2" transform="matrix(1.15126 0 0 1.14297 -1679.2989 -1277.35816)"/><path d="M1062.4582-144.24812h-44.0213c-.8731 0-1.5759-.70284-1.5759-1.57588v-44.02132c0-.87303.7028-1.57588 1.5759-1.57588l45.5972 45.5972c0 .87304-.7029 1.57588-1.5759 1.57588z" transform="matrix(1.15126 0 0 1.14297 -1679.2989 -1277.35816)"/></g><path d="M-203.7267-65.83594h56.15017M-203.7267-86.5883h56.15017M-203.7267-45.0836h56.15017" stroke-width="6.61769" transform="matrix(1.40338 0 0 1.39531 -274.77042 -1289.34509)"/></g><g fill="none" stroke="#000" stroke-linejoin="round"><path d="M-630.53192-1867.36888h131.9609c14.6624 14.6623 29.3246 29.3246 43.9869 43.9869v131.961h-175.9478v-175.9479z" stroke-width="9.26042"/><path stroke-width="9.26042" d="M-578.89652-1867.36898h72.67728v47.42513h-72.67728z"/><path d="M-528.62142-1851.63298v15.4954" stroke-width="9.26042" stroke-linecap="round"/><g stroke-width="8.03697"><path d="M-599.36343-1762.36395h113.61104v70.9429h-113.61104z" stroke-width="9.260437943100001"/><g stroke-linecap="round"><path d="M-505.14774-1739.74018h-74.82013M-505.14774-1714.04482h-74.82013" stroke-width="9.260437943100001"/></g></g></g><g fill="none" stroke="#000" stroke-width="9.26042" stroke-linejoin="round"><path d="M1199.58749-2252.59225v22.49361m-104.45723 0v-62.72064h64.21954" stroke-miterlimit="6.2"/><path d="M1198.19682-2251.20198h-38.8471c-.77048 0-1.39067-.62007-1.39067-1.39028v-38.83674c0-.77021.62019-1.39028 1.39067-1.39028l40.23777 40.22702c0 .77021-.62029 1.39028-1.39067 1.39028zM1206.59933-2212.77486h12.75166" stroke-linecap="round"/><path d="M1095.70625-2164.49906h-36.32141v-64.50356h175.9479v64.50356h-33.49189"/><path d="M1117.18872-2156.84117h60.34023M1117.18872-2137.98872h60.34023" stroke-linecap="round"/><path d="M1094.29141-2177.95855h106.13478v61.08717h-106.13478z"/></g><g fill="none" stroke="#000" stroke-width="9.26042" stroke-linecap="round" stroke-linejoin="round"><path d="M-1886.28831-561.23828l175.8543-175.85436M-1886.28831-737.09264l175.8543 175.85439"/></g><g transform="translate(482.29826 -865.09879)" fill="none" stroke="#000" stroke-width="9.26042" stroke-linecap="round" stroke-linejoin="round"><ellipse cx="-344.66565" cy="-2283.1392" rx="57.3715" ry="56.43512" transform="rotate(-45.00534)"/><path d="M-1738.9413-1251.8221l-79.1058-79.1204"/></g><path d="M304.35349-1849.05311h-35.14851v-18.3158h35.14851z" fill="none" stroke="#000" stroke-width="9.26042" stroke-linecap="round" stroke-linejoin="round" stroke-miterlimit="6.2"/><g fill="none" stroke="#000" stroke-width="9.26042" stroke-linecap="round" stroke-linejoin="round" stroke-miterlimit="6.2"><path d="M358.21438-1691.421h-142.8703v-157.63208h142.8703z"/><path d="M331.79557-1836.45054H241.7629v-6.88925h90.03267z"/></g><g fill="none" stroke="#000" stroke-width="7.95688" stroke-linecap="round" stroke-linejoin="round"><path d="M-3788.4218-212.55864h68.3772M-3788.4218-237.18328h68.3772M-3788.4218-187.93401h68.3772M-3788.9913-163.30937h68.3772" transform="matrix(1.16492 0 0 1.16273 4660.50166 -1532.59421)"/></g><g transform="translate(-1540.73679 -705.19589)" fill="none" stroke="#000" stroke-linecap="round" stroke-linejoin="round"><ellipse cx="704.22473" cy="-258.69522" rx="23.97682" ry="23.82209" transform="matrix(.5075 -.86165 .8703 .49253 0 0)" stroke-width="9.26111"/><path d="M185.26258-702.97257l-32.84212-18.58659" stroke-width="9.26042"/><ellipse cx="-519.54413" cy="454.93579" rx="23.97682" ry="23.82209" transform="matrix(.5075 .86165 .8703 -.49253 0 0)" stroke-width="9.26111"/><path d="M185.26258-702.97257L152.42046-684.386M185.2703-702.96933l98.805-29.77729M185.2703-702.96933l98.805 29.7773" stroke-width="9.26042"/></g><g stroke-width=".65704" fill="none" stroke="#000" stroke-linecap="round"><g transform="matrix(1.5227 0 0 1.52124 316.38499 -1420.39453)"><path d="M-1690.99316 468.41985l-.00002-19.23402M-1690.99308 564.76397l-.00005-65.3408" stroke-width="6.084429844799999" stroke-linejoin="round"/><circle cx="-1690.9932" cy="483.92142" r="15.50163" stroke-width="6.08451" stroke-linejoin="bevel"/></g><g transform="matrix(1.5227 0 0 1.52124 318.89289 -1420.39453)"><path d="M-1650.36816 512.3206l-.00003-63.13477M-1650.36808 564.76397l-.00005-21.44006" stroke-width="6.084429844799999" stroke-linejoin="round"/><circle cx="-1650.3682" cy="527.8219" r="15.50163" stroke-width="6.08451" stroke-linejoin="bevel"/></g><g transform="matrix(1.5227 0 0 1.52124 274.19239 -1418.76821)"><path d="M-1578.73998 480.96324v-32.84649M-1578.73987 563.6949v-51.7285" stroke-width="6.084429844799999" stroke-linejoin="round"/><circle cx="-1578.74" cy="496.46475" r="15.50163" stroke-width="6.08451" stroke-linejoin="bevel"/></g></g><g fill="none" stroke="#000" stroke-width="9.26042" stroke-linecap="round" stroke-linejoin="round"><path stroke-miterlimit="6.2" d="M-2246.17072-1867.37127h116.03008v175.95261h-116.03008z"/><path d="M-2196.16182-1779.39497h132.0424M-2064.11952-1779.39497l-38.8891 38.0512M-2064.11952-1779.39497l-38.8891-38.0511"/></g><g fill="none" stroke="#000" stroke-width="9.26042" stroke-linecap="round" stroke-linejoin="round"><path stroke-miterlimit="6.2" d="M-1866.52502-1867.37124h116.03008v175.95261h-116.03008z"/><path d="M-1684.47372-1779.39504h-132.0424M-1816.51602-1779.39504l38.8891 38.0512M-1816.51602-1779.39504l38.8891-38.0511"/></g><g fill="none" stroke="#000" stroke-width="9.26042" stroke-linecap="round" stroke-linejoin="round"><path d="M-2472.02396-1372.40382l-.00027 50.63486c0 1.26358-.84285 2.28081-1.89013 2.28081h-172.17305c-1.04714 0-1.89013-1.01723-1.89013-2.28081v-50.63486" stroke-miterlimit="6.2"/><path d="M-2560.00075-1345.94785v-150.83497M-2560.00075-1496.78273l-43.48169 44.42384M-2560.00075-1496.78273l43.4817 44.42384"/></g><path d="M536.37152-1001.19819h175.7822" fill="none" stroke="#000" stroke-width="9.26042" stroke-linecap="round" stroke-linejoin="round"/><g fill="none" stroke="#000" stroke-width="9.26042" stroke-linecap="round" stroke-linejoin="round"><path d="M159.27518-1001.19824h175.78218M247.16627-1089.08933v175.78218"/></g><g transform="translate(-156.90246 -990.18099)" fill="none" stroke="#000" stroke-width="9.26042" stroke-linecap="round" stroke-linejoin="round"><ellipse cx="-840.60016" cy="-2602.1973" rx="57.3715" ry="56.43512" transform="rotate(-45.00534)"/><path d="M-2315.1744-1126.74l-79.1057-79.1204M-2472.2481-1245.7533h76.0993M-2434.1984-1283.803v76.0993"/></g><g transform="translate(307.53352 -899.30929)" fill="none" stroke="#000" stroke-width="9.26042" stroke-linecap="round" stroke-linejoin="round"><ellipse cx="-566.17584" cy="-2456.2729" rx="57.3715" ry="56.43512" transform="rotate(-45.00534)"/><path d="M-2017.9707-1217.6117l-79.1057-79.1203M-2175.0444-1336.625h76.0993"/></g><g transform="translate(236.72297 -619.44004)"><text style="line-height:3.3499999" x="-2507.1326" y="-1592.7974" font-weight="400" font-size="64.96838" font-family="sans-serif" letter-spacing="0" word-spacing="0" stroke-width=".26458"/><ellipse cx="-598.08905" cy="-2883.9441" rx="57.3715" ry="56.43512" transform="rotate(-45.00534)" fill="none" stroke="#000" stroke-width="9.26042" stroke-linecap="round" stroke-linejoin="round"/><path d="M-2342.9156-1497.4809l-79.1058-79.1204" fill="none" stroke="#000" stroke-width="9.26042" stroke-linecap="round" stroke-linejoin="round"/></g><g fill="none" stroke="#000" stroke-width="9.26042" stroke-linecap="round" stroke-linejoin="round" stroke-miterlimit="6.2"><path d="M-2647.97471-715.13872h153.94724v153.94724h-153.94724z"/><path d="M-2625.97405-715.13867v-22.00073h153.94724v153.94724h-22.00073"/></g><g fill="none" stroke="#000" stroke-width="9.26042" stroke-linecap="round" stroke-linejoin="round"><path d="M324.53138-1342.51617h-71.21026c-61.03471 0-61.03471-93.20769 5.20191-93.20769h125.55095M384.07398-1435.72386l-38.8891 38.05115M384.07398-1435.72386l-38.8891-38.05115"/></g><g fill="none" stroke="#000" stroke-width="9.26042" stroke-linecap="round" stroke-linejoin="round"><path d="M-159.48158-1342.51617h71.21026c61.0347 0 61.0347-93.20769-5.20191-93.20769h-125.55095M-219.02418-1435.72386l38.8891 38.05115M-219.02418-1435.72386l38.8891-38.05115"/></g><g fill="none" stroke="#000" stroke-width="9.26042" stroke-linecap="round" stroke-linejoin="round"><path d="M-1296.96519-1001.19816l-95.20357 87.92836M-1296.96519-1001.19816l-95.20357-87.92835"/></g><g fill="none" stroke="#000" stroke-width="9.26042" stroke-linecap="round" stroke-linejoin="round"><path d="M-2607.60257-1001.1982l95.20356 87.92835M-2607.60257-1001.1982l95.20356-87.92836"/></g><g fill="none" stroke="#000"><g stroke-width="9.02725" stroke-linecap="round" stroke-linejoin="round"><path d="M-158.46651 96.67163l38.88909 38.05115M-158.46651 96.67163l38.88909-38.05115" transform="matrix(1.02602 0 0 1.02564 -36.93282 -1149.24965)"/></g><path d="M-199.57024-981.66134c0 27.68081 16.68063 52.63599 42.26373 63.22898 25.58311 10.593 55.03053 4.73768 74.61101-14.8356 19.58046-19.5733 25.43792-49.00994 14.84104-74.58369-10.59687-25.57373-35.13-42.24554-62.82095-42.24554l-68.84199.003" stroke-width="9.26042"/></g><path d="M-1270.79969-661.2697h-175.9495l90.0418-75.8658zm-106.8185 100.0737h-46.5326v-100.0739h129.1794v100.0739h-46.5326m-36.1145-.1181v-48.0593h36.1147v48.0593" fill="none" stroke="#000" stroke-width="9.26042" stroke-linecap="round" stroke-linejoin="round"/><g fill="none" stroke="#000"><g stroke-width="9.02725" stroke-linecap="round" stroke-linejoin="round"><path d="M-158.46651 96.67163l38.88909 38.05115M-158.46651 96.67163l38.88909-38.05115" transform="matrix(-1.02602 0 0 1.02564 -616.6269 -1149.24965)"/></g><path d="M-453.98948-981.66134c0 27.68081-16.68063 52.63599-42.26373 63.22898-25.58311 10.593-55.03053 4.73768-74.61101-14.8356-19.58046-19.5733-25.43792-49.00994-14.84104-74.58369 10.59687-25.57373 35.13-42.24554 62.82095-42.24554l68.84199.003" stroke-width="9.26042"/></g><g transform="translate(3.2261 -934.83179)" fill="none" stroke="#000" stroke-width="9.26042" stroke-linecap="round" stroke-linejoin="round"><circle cx="-690.90137" cy="-1105.1691" r="87.97395" transform="rotate(45)"/><circle cx="-690.90137" cy="-1105.1691" r="59.53647" transform="rotate(45)"/><path d="M335.03003-1227.9151l20.04987 20.0499M230.78314-1332.162l20.04987 20.0499M250.833-1227.9151l-20.04986 20.0499M355.0799-1332.162l-20.04987 20.0499"/></g><g transform="translate(-47.29433 -955.83299)" fill="none" stroke="#000" stroke-width="9.26042" stroke-linecap="round" stroke-linejoin="round"><ellipse cx="452.39822" cy="693.55414" rx="31.19893" ry="31.63456" transform="matrix(-.0001 -1 1 .00009 0 0)"/><path d="M837.76177-452.3395l-112.58661-.006M781.1025-426.26069l.006-26.05829M799.02985-430.77546l.006-21.57197M816.9572-426.2826l.006-26.0583"/></g><path d="M-112.51194-183.04153l38.31968 95.42414 102.59519 6.9565-78.91233 65.93186 25.08763 99.7235-87.09017-54.67601-87.09018 54.676 25.08764-99.72349-78.91232-65.93186 102.59518-6.9565z" transform="matrix(.62427 0 0 .62366 1139.51898 -970.62449)" fill="none" stroke="#000" stroke-width="14.84131" stroke-linecap="round" stroke-linejoin="round"/><g transform="translate(242.7637 -1331.01569)" fill="none" stroke="#000" stroke-linecap="round" stroke-linejoin="round"><ellipse cx="518.29993" cy="619.60132" rx="23.97682" ry="23.82209" transform="matrix(.5075 -.86165 .8703 .49253 0 0)" stroke-width="9.26111"/><ellipse cx="406.42236" cy="684.8418" rx="23.97682" ry="23.82209" transform="matrix(.5075 -.86165 .8703 .49253 0 0)" stroke-width="9.26111"/><ellipse cx="525.33441" cy="762.38867" rx="23.97682" ry="23.82209" transform="matrix(.5075 -.86165 .8703 .49253 0 0)" stroke-width="9.26111"/><path d="M827.83933-128.56733l76.63311 38.52491M823.82442-23.7198l84.73882-42.5998" stroke-width="9.26042"/></g><g fill="none" stroke="#000" stroke-width="9.26042" stroke-linecap="round" stroke-linejoin="round"><path d="M-2194.11666-1048.80002l87.92835 95.20357M-2194.11666-1048.80001l-87.92836 95.20356"/></g><g fill="none" stroke="#000" stroke-width="9.26042" stroke-linecap="round" stroke-linejoin="round"><path d="M-1798.36112-953.59642l87.92835-95.20357M-1798.36112-953.59643l-87.92836-95.20356"/></g><g fill="none" stroke="#000" stroke-width="9.26042" stroke-linecap="round"><g stroke-linejoin="round"><path d="M-964.6754-649.16543l95.20356-62.4843M-964.6754-649.16543l95.20356 62.4843"/></g><path d="M-973.98472-737.0938v175.8567"/></g><g fill="none" stroke="#000" stroke-width="9.26042" stroke-linecap="round"><g stroke-linejoin="round"><path d="M135.57862 92.60416l-95.20356-62.4843M135.57862 92.60416l-95.20356 62.4843"/></g><path d="M144.888 4.67582v175.85669"/></g><g transform="translate(1672.47381 -501.92773)" fill="none" stroke="#000" stroke-width="9.26042" stroke-linecap="round" stroke-linejoin="round"><ellipse cx="-1833.8696" cy="-222.45903" rx="41.30602" ry="41.4488"/><path d="M-1921.5762-88.02904h175.4132m-175.4132 0a87.97433 86.2569 0 01-.2678-6.7243 87.97433 86.2569 0 0187.9743-86.25689 87.97433 86.2569 0 0187.9744 86.2569v0a87.97433 86.2569 0 01-.2679 6.72598"/></g><path d="M260.36537-705.67455c-5.379-20.22358-23.8631-34.31947-45.0035-34.31947-1.6883 0-3.3754.0908-5.0537.27224m-39.8743 34.0132a41.99253 41.99253 0 00-1.5711-.0294c-22.901-.00001-41.4659 18.36411-41.4659 41.01743 0 9.84637 2.1625 21.35929 10.0738 26.79863 42.6468 29.3213 113.1667 29.32745 155.8093.00002 7.9097-5.43989 10.0648-16.95225 10.0648-26.79862 0-22.65332-18.5649-41.01744-41.4659-41.01743-.5238 0-1.0476.01-1.5711.0294m-89.9315.034c5.379-20.22358 23.8631-34.31947 45.0035-34.31947 1.6883 0 3.3754.0908 5.0537.27224M-185.75403-1867.36899H-9.80612v175.94791h-175.94791z" fill="none" stroke="#000" stroke-width="9.26042" stroke-linecap="round" stroke-linejoin="round"/><g fill="none" stroke="#000" stroke-width="9.26042" stroke-linecap="round" stroke-linejoin="round"><path d="M-164.45507-1820.93457h25.92917v25.92917h-25.92917zM-110.74465-1820.93457h25.92917v25.92917h-25.92917zM-57.03423-1820.93457h25.92917v25.92917h-25.92917zM-164.45507-1763.78458h25.92917v25.92917h-25.92917zM-110.74465-1763.78458h25.92917v25.92917h-25.92917zM-57.03423-1763.78458h25.92917v25.92917h-25.92917z"/></g><path fill="none" stroke="#000" stroke-width="9.26042" stroke-linecap="round" stroke-linejoin="round" d="M-185.75403-1849.06669H-9.80612v139.34364h-175.94791z"/><g fill="none" stroke="#000" stroke-width="9.26042" stroke-linecap="round" stroke-linejoin="round"><path stroke-miterlimit="6.2" d="M-1451.745-1867.3713h116.03008v175.95261H-1451.745z"/><path d="M-1517.7662-1779.395h132.0424M-1385.7239-1779.395l-38.8891 38.05119M-1385.7239-1779.395l-38.8891-38.0511"/></g><g fill="none" stroke="#000" stroke-width="9.26042" stroke-linecap="round" stroke-linejoin="round"><path stroke-miterlimit="6.2" d="M-1046.40349-1867.37126h116.03008v175.95261h-116.03008z"/><path d="M-980.38219-1779.39506h-132.0424M-1112.42449-1779.39506l38.8891 38.0512M-1112.42449-1779.39506l38.8891-38.0511"/></g><g transform="translate(100.23253 -233.2078)"><path d="M510.39322-419.2546h99.0598M510.39322-478.4401h99.0598M510.39322-360.06921h99.0598" fill="none" stroke="#000" stroke-width="9.26042" stroke-linecap="round" stroke-linejoin="round"/><circle cx="491.23651" cy="-478.44009" r="4.63021"/><circle cx="491.23651" cy="-419.25464" r="4.63021"/><circle cx="491.23651" cy="-360.06921" r="4.63021"/><path d="M433.62349-419.2546h38.45635M433.62349-478.4401h38.45635M433.62349-360.06921h38.45635" fill="none" stroke="#000" stroke-width="9.26042" stroke-linecap="round" stroke-linejoin="round"/></g><path d="M-2550.33119-1828.39829l-21.0478-23.281h-35.3605m-32.9111 23.281l21.0478-23.281h35.3605m111.2154 144.5691h-175.9479v-121.2881h175.9479v121.2881z" fill="none" stroke="#000" stroke-width="9.26042" stroke-linecap="round" stroke-linejoin="round"/><g fill="none" stroke="#000" stroke-width="9.26042" stroke-linecap="round" stroke-linejoin="round"><path d="M988.49335-1832.18709h175.94792v105.58412H988.49335z"/><path d="M1164.44129-1832.18709l-175.96193-.3367 87.69092 78.011z"/><path d="M1048.01844-1779.23279l-59.539 52.9667 175.96185-.3369-59.79582-52.6174-28.46131 25.0444z"/></g><path d="M-941.63439-2138.87899v-133.0631h-42.6218v155.0684h61.8115v-175.9433h-83.0773v153.938" fill="none" stroke="#000" stroke-width="9.26042"/><g transform="translate(278.30158 196.0995)" fill="none" stroke="#000" stroke-width="9.26042" stroke-linecap="round" stroke-linejoin="round"><path d="M763.41671-840.01578a150.88508 154.11206 0 0150.68894-8.95671 150.88508 154.11206 0 0150.68635 8.95576M744.75814-872.99241a187.68634 191.70036 0 0169.35474-13.56839 187.68634 191.70036 0 0169.33769 13.56145M726.19227-905.84079a224.48756 229.28865 0 0187.90085-18.30833 224.48756 229.28865 0 0187.92332 18.3181"/><ellipse cx="814.10437" cy="-798.31799" rx="18.76112" ry="18.7672"/></g></svg>